<svg width="22" height="22" viewBox="0 0 22 22" fill="none" xmlns="http://www.w3.org/2000/svg">
<path d="M7.85555 2.09684C8.03199 2.09617 8.20843 2.09543 8.38487 2.09461C8.75214 2.09334 9.11939 2.09337 9.48667 2.09428C9.95714 2.09529 10.4275 2.09235 10.898 2.08838C11.2612 2.08585 11.6244 2.0857 11.9877 2.08623C12.1612 2.08614 12.3348 2.08525 12.5083 2.08352C12.7502 2.0814 12.9918 2.08255 13.2337 2.08455C13.3407 2.08258 13.3407 2.08258 13.4498 2.08057C13.9189 2.08912 13.9189 2.08912 14.1392 2.25665C14.3597 2.50382 14.426 2.64204 14.4375 2.97569C14.3196 3.32928 14.2265 3.41546 13.9111 3.60948C13.6575 3.64218 13.4363 3.65543 13.1831 3.6523C13.0747 3.65301 13.0747 3.65301 12.964 3.65374C12.8074 3.65454 12.6507 3.65455 12.494 3.65386C12.2454 3.65277 11.9968 3.65374 11.7481 3.65523C11.3091 3.65753 10.8701 3.65801 10.431 3.65789C9.73025 3.6577 9.02949 3.65893 8.32871 3.66267C8.08504 3.66351 7.8414 3.66277 7.59773 3.66192C6.37629 3.66344 5.32928 3.78454 4.37173 4.61891C3.23305 5.80185 3.31454 7.47034 3.31799 8.99366C3.31787 9.17481 3.3177 9.35595 3.31749 9.5371C3.31724 9.91552 3.3176 10.2939 3.31841 10.6724C3.31939 11.155 3.31882 11.6376 3.31779 12.1202C3.31717 12.4939 3.31737 12.8677 3.31782 13.2414C3.31793 13.4192 3.31779 13.5971 3.31739 13.7749C3.30774 15.962 3.30774 15.962 4.2821 17.8717C4.95913 18.5462 5.8547 18.8465 6.79281 18.8563C6.92262 18.8557 6.92262 18.8557 7.05505 18.8551C7.14836 18.8557 7.24167 18.8563 7.33781 18.8569C7.64435 18.8585 7.95084 18.8582 8.25738 18.8577C8.47173 18.8581 8.68608 18.8585 8.90043 18.859C9.40634 18.8599 9.91224 18.8594 10.4181 18.8584C10.934 18.8576 11.4499 18.8597 11.9657 18.862C12.4082 18.8636 12.8507 18.8636 13.2933 18.8631C13.5045 18.8631 13.7158 18.8636 13.927 18.8646C14.2231 18.8659 14.5192 18.865 14.8153 18.8635C14.9446 18.8648 14.9446 18.8648 15.0765 18.866C15.9777 18.8567 16.8368 18.5608 17.5205 17.961C18.3132 17.082 18.5658 15.9892 18.5626 14.8325C18.5627 14.7619 18.5629 14.6913 18.5631 14.6185C18.5634 14.4659 18.5636 14.3132 18.5636 14.1606C18.5639 13.8359 18.5658 13.5113 18.5675 13.1866C18.5708 12.5827 18.5735 11.9789 18.5733 11.3751C18.5732 10.9543 18.5752 10.5336 18.5786 10.1129C18.5795 9.95279 18.5796 9.79268 18.579 9.63257C18.5781 9.40874 18.58 9.18507 18.5824 8.96125C18.5815 8.8953 18.5806 8.82935 18.5797 8.7614C18.5863 8.42169 18.6259 8.26524 18.8372 7.99417C19.0674 7.82041 19.0674 7.82041 19.3682 7.7667C19.7544 7.83567 19.8595 7.94187 20.0986 8.2501C20.1407 8.50956 20.1567 8.7202 20.1529 8.97916C20.1538 9.08785 20.1538 9.08785 20.1547 9.19872C20.1562 9.43813 20.1545 9.67741 20.1527 9.91682C20.1527 10.0844 20.153 10.252 20.1533 10.4195C20.1535 10.7713 20.1523 11.123 20.1499 11.4748C20.147 11.9219 20.1475 12.369 20.1491 12.8162C20.15 13.1628 20.1493 13.5094 20.148 13.856C20.1475 14.0206 20.1476 14.1852 20.1481 14.3498C20.1518 16.1661 19.846 17.7589 18.534 19.1205C17.3986 20.14 16.0704 20.4653 14.5818 20.4671C14.4958 20.4675 14.4098 20.4679 14.3212 20.4684C14.0377 20.4696 13.7542 20.4702 13.4707 20.4707C13.3246 20.471 13.3246 20.471 13.1756 20.4714C12.6598 20.4727 12.144 20.4735 11.6282 20.4739C11.0984 20.4743 10.5686 20.4764 10.0388 20.4789C9.62886 20.4805 9.21893 20.4809 8.80899 20.481C8.61385 20.4813 8.41871 20.482 8.22357 20.4831C6.31215 20.4934 4.64931 20.3707 3.20352 18.9631C2.18405 17.8342 1.76633 16.4012 1.77034 14.9058C1.7699 14.8196 1.76946 14.7334 1.76901 14.6446C1.76782 14.3621 1.76789 14.0796 1.76809 13.7971C1.76776 13.5989 1.76738 13.4007 1.76698 13.2025C1.76634 12.7879 1.76636 12.3733 1.76681 11.9586C1.76731 11.4301 1.76586 10.9015 1.76386 10.373C1.76259 9.96379 1.76252 9.5546 1.76279 9.1454C1.76274 8.95067 1.7623 8.75594 1.76143 8.56121C1.75372 6.59563 1.96156 4.95588 3.35693 3.46446C4.65435 2.22401 6.15736 2.09414 7.85555 2.09684Z" fill="#424874"/>
<path d="M15.4688 8.25006C15.6959 8.43174 15.8508 8.5874 15.9845 8.84625C15.9845 9.3869 15.4826 9.87351 15.1627 10.275C15.054 10.4129 14.9453 10.5509 14.8367 10.6889C14.7834 10.7564 14.7301 10.8238 14.6751 10.8934C14.4682 11.1563 14.2647 11.4217 14.0616 11.6876C13.8018 12.0254 13.5412 12.3626 13.2774 12.6973C13.1963 12.8004 13.1963 12.8004 13.1136 12.9055C12.9173 13.1307 12.8278 13.1461 12.5258 13.177C12.1295 13.142 11.9861 13.0301 11.6822 12.7779C11.5855 12.6993 11.4888 12.6208 11.3922 12.5422C11.3424 12.5009 11.2927 12.4597 11.2414 12.4171C10.977 12.1993 10.7061 11.9898 10.4361 11.7789C10.3375 11.7011 10.2389 11.6234 10.1404 11.5456C9.94163 11.3898 9.74199 11.2363 9.53914 11.086C8.89832 11.8405 8.28991 12.6114 7.71431 13.4174C7.6536 13.5024 7.59289 13.5873 7.53035 13.6749C7.47651 13.7513 7.42267 13.8277 7.3672 13.9065C7.15432 14.1752 7.012 14.2591 6.67097 14.3033C6.35945 14.2657 6.35945 14.2657 6.10701 14.0884C5.87888 13.7635 5.87886 13.6269 5.92976 13.2344C6.06978 12.9782 6.24877 12.7606 6.43464 12.5362C6.53793 12.4066 6.64121 12.277 6.74449 12.1475C6.82165 12.0523 6.82165 12.0523 6.90038 11.9552C7.10243 11.7047 7.29768 11.4493 7.49275 11.1934C7.56055 11.1055 7.62834 11.0175 7.69819 10.9269C7.84634 10.7343 7.99405 10.5414 8.14131 10.3481C8.18017 10.2973 8.21904 10.2464 8.25908 10.194C8.33329 10.0968 8.40736 9.99951 8.48126 9.90209C8.92861 9.31722 8.92861 9.31722 9.22224 9.20612C9.78399 9.17999 10.2241 9.64398 10.6295 9.98493C10.7509 10.085 10.8724 10.1849 10.994 10.2847C11.0533 10.3333 11.1125 10.3819 11.1735 10.4319C11.4079 10.6225 11.645 10.8076 11.8863 10.9893C11.9586 11.044 12.031 11.0988 12.1055 11.1552C12.1661 11.1891 12.2267 11.223 12.2891 11.2579C12.6199 11.1476 12.7403 10.9479 12.939 10.6778C13.0157 10.576 13.0923 10.4741 13.169 10.3723C13.2082 10.3198 13.2473 10.2674 13.2877 10.2133C14.8144 8.17307 14.8144 8.17307 15.4688 8.25006Z" fill="#424874"/>
<path d="M19.5055 1.6046C20.0808 1.98149 20.5452 2.40432 20.7603 3.07595C20.9211 3.90927 20.833 4.62075 20.3672 5.32811C20.3158 5.40788 20.2644 5.48764 20.2115 5.56981C19.6979 6.0834 19.0937 6.36009 18.3692 6.39159C17.6173 6.37425 17.0247 6.09823 16.4792 5.58593C15.9732 5.01016 15.7811 4.41916 15.7954 3.66475C15.8562 2.85814 16.2488 2.3366 16.8438 1.80468C17.6063 1.23218 18.6582 1.15651 19.5055 1.6046ZM17.4668 3.2495C17.326 3.49606 17.2847 3.66821 17.2735 3.95311C17.2623 4.23802 17.4628 4.48128 17.6817 4.71581C18.0771 4.9135 18.3773 4.92821 18.7989 4.80175C19.1061 4.62451 19.2115 4.54033 19.336 4.21093C19.3827 3.79069 19.3808 3.60979 19.1856 3.23339C18.9082 2.90975 18.7767 2.84758 18.3531 2.80907C17.9506 2.84438 17.7445 2.9619 17.4668 3.2495Z" fill="#424874"/>
</svg>
