<svg width="6" height="10" viewBox="0 0 6 10" fill="none" xmlns="http://www.w3.org/2000/svg">
<path d="M4.41538 5L0.649008 1.23363C0.549674 1.13429 0.501299 1.01604 0.503882 0.878875C0.506466 0.741708 0.557424 0.623416 0.656758 0.524C0.756091 0.424666 0.874341 0.375 1.01151 0.375C1.14867 0.375 1.26697 0.424666 1.36638 0.524L5.19426 4.35963C5.28459 4.45004 5.35155 4.55133 5.39513 4.6635C5.4388 4.77567 5.46063 4.88783 5.46063 5C5.46063 5.11217 5.4388 5.22433 5.39513 5.3365C5.35155 5.44867 5.28459 5.54996 5.19426 5.64038L1.35863 9.476C1.2593 9.57533 1.14234 9.62371 1.00776 9.62113C0.873091 9.61854 0.756091 9.56758 0.656758 9.46825C0.557424 9.36892 0.507757 9.25067 0.507757 9.1135C0.507757 8.97633 0.557424 8.85804 0.656758 8.75863L4.41538 5Z" fill="#424874"/>
</svg>
