<svg width="18" height="18" viewBox="0 0 18 18" fill="none" xmlns="http://www.w3.org/2000/svg">
<path d="M17.0429 11.7759L12.9832 9.9566C12.7993 9.87778 12.5986 9.8461 12.3993 9.8644C12.2 9.88271 12.0085 9.95043 11.842 10.0614C11.8251 10.0723 11.809 10.0844 11.7938 10.0975L9.67204 11.9022C9.65003 11.9142 9.62552 11.9209 9.60046 11.9218C9.5754 11.9227 9.55048 11.9178 9.52767 11.9074C8.16384 11.2491 6.75103 9.84488 6.09017 8.49996C6.07916 8.47748 6.07344 8.45279 6.07344 8.42777C6.07344 8.40275 6.07916 8.37806 6.09017 8.35558L7.90087 6.20714C7.91386 6.19125 7.92591 6.1746 7.93696 6.1573C8.04644 5.99016 8.11256 5.79838 8.12937 5.59928C8.14617 5.40019 8.11312 5.20004 8.03321 5.01691L6.22681 0.964095C6.12422 0.724853 5.94681 0.525334 5.7212 0.395485C5.49559 0.265636 5.23396 0.21246 4.97556 0.243938C3.85255 0.391576 2.82172 0.943073 2.0757 1.79537C1.32969 2.64767 0.919531 3.74244 0.921885 4.87511C0.921885 11.604 6.3961 17.0782 13.125 17.0782C14.2576 17.0804 15.3523 16.6702 16.2046 15.9242C17.0568 15.1782 17.6084 14.1475 17.7562 13.0246C17.7876 12.7674 17.7351 12.5069 17.6066 12.2819C17.4781 12.057 17.2804 11.8795 17.0429 11.7759ZM13.125 16.047C6.96501 16.047 1.95314 11.0351 1.95314 4.87511C1.95026 3.99333 2.26853 3.14067 2.84847 2.47643C3.42841 1.8122 4.23035 1.38183 5.10446 1.26574H5.12423C5.15886 1.26638 5.19249 1.27748 5.22071 1.29757C5.24892 1.31766 5.27041 1.3458 5.28235 1.37831L7.09563 5.42683C7.10598 5.44934 7.11133 5.47382 7.11133 5.49859C7.11133 5.52336 7.10598 5.54784 7.09563 5.57035L5.2815 7.72394C5.26796 7.73932 5.25561 7.75569 5.24454 7.77293C5.13102 7.94623 5.06418 8.1459 5.05048 8.35262C5.03677 8.55933 5.07668 8.76608 5.16634 8.95285C5.9286 10.5135 7.50126 12.0741 9.07907 12.8364C9.26693 12.9255 9.47469 12.9645 9.68208 12.9494C9.88948 12.9344 10.0894 12.8658 10.2624 12.7504C10.2788 12.7393 10.2951 12.7272 10.3106 12.7143L12.4315 10.9096C12.4524 10.8984 12.4756 10.8918 12.4993 10.8903C12.523 10.8888 12.5468 10.8925 12.569 10.9011L16.6295 12.7203C16.6627 12.7345 16.6906 12.7587 16.7093 12.7895C16.7279 12.8204 16.7364 12.8563 16.7335 12.8922C16.618 13.7667 16.1881 14.5693 15.524 15.1499C14.8599 15.7305 14.0071 16.0494 13.125 16.047Z" fill="#424874"/>
</svg>
