<svg width="15" height="22" viewBox="0 0 15 22" fill="none" xmlns="http://www.w3.org/2000/svg">
<path d="M9.26919 21.3461L1.84616 13.6105C1.75801 13.5224 1.6887 13.4162 1.63822 13.292C1.58774 13.1678 1.5625 13.0364 1.5625 12.8978V12.274C1.5625 11.9811 1.66155 11.7357 1.85966 11.5375C2.05778 11.3394 2.30327 11.2404 2.59612 11.2404H5.62497C6.80926 11.2404 7.86055 10.861 8.77884 10.1022C9.69711 9.34332 10.2035 8.32849 10.2981 7.05766H1.24997C0.984344 7.05766 0.761698 6.96777 0.582031 6.788C0.402344 6.60823 0.3125 6.38548 0.3125 6.11975C0.3125 5.85402 0.402344 5.63141 0.582031 5.45191C0.761698 5.27243 0.984344 5.18269 1.24997 5.18269H10.0433C9.7372 4.32531 9.18511 3.62218 8.38703 3.07328C7.58895 2.52441 6.66826 2.24997 5.62497 2.24997H1.24997C0.984344 2.24997 0.761698 2.16008 0.582031 1.98031C0.402344 1.80056 0.3125 1.57781 0.3125 1.31206C0.3125 1.04633 0.402344 0.82373 0.582031 0.644251C0.761698 0.464751 0.984344 0.375 1.24997 0.375H13.75C14.0156 0.375 14.2383 0.464886 14.4179 0.644657C14.5976 0.824428 14.6874 1.04718 14.6874 1.31291C14.6874 1.57866 14.5976 1.80127 14.4179 1.98075C14.2383 2.16023 14.0156 2.24997 13.75 2.24997H10.1922C10.6361 2.60414 11.0248 3.03563 11.3581 3.54444C11.6915 4.05327 11.9166 4.59935 12.0336 5.18269H13.75C14.0156 5.18269 14.2383 5.27257 14.4179 5.45235C14.5976 5.6321 14.6874 5.85484 14.6874 6.12059C14.6874 6.38632 14.5976 6.60894 14.4179 6.78844C14.2383 6.96792 14.0156 7.05766 13.75 7.05766H12.1923C12.1057 8.82849 11.4246 10.2808 10.149 11.4146C8.87335 12.5484 7.36534 13.1153 5.62497 13.1153H3.9855L10.6249 20.0288C10.9118 20.3285 10.9739 20.6694 10.8112 21.0516C10.6486 21.4338 10.3608 21.6249 9.94778 21.6249C9.8207 21.6249 9.69907 21.6017 9.58291 21.5552C9.46672 21.5087 9.36215 21.439 9.26919 21.3461Z" fill="white"/>
</svg>
