<svg width="15" height="15" viewBox="0 0 15 15" fill="none" xmlns="http://www.w3.org/2000/svg">
<g clip-path="url(#clip0_543_467)">
<path d="M11.5301 -0.0149242C11.5533 -0.015256 11.5766 -0.0155877 11.6005 -0.0159295C11.6258 -0.0156914 11.651 -0.0154532 11.677 -0.0152078C11.7038 -0.015414 11.7306 -0.0156202 11.7582 -0.0158326C11.8468 -0.0163503 11.9353 -0.0160075 12.0239 -0.01561C12.0854 -0.0156892 12.1469 -0.0158034 12.2085 -0.015951C12.3374 -0.0161245 12.4664 -0.0158723 12.5954 -0.0153227C12.7607 -0.0146525 12.9261 -0.0150384 13.0915 -0.015743C13.2185 -0.016168 13.3456 -0.0160329 13.4727 -0.015728C13.5336 -0.0156495 13.5946 -0.015746 13.6556 -0.0160197C13.7408 -0.0163182 13.826 -0.0158634 13.9112 -0.0152078C13.9364 -0.015446 13.9617 -0.0156841 13.9877 -0.0159295C14.1587 -0.013489 14.1587 -0.013489 14.25 0.0561135C14.3317 0.170092 14.3277 0.261398 14.3273 0.397445C14.3273 0.420618 14.3274 0.443792 14.3275 0.467667C14.3276 0.546144 14.3275 0.624619 14.3274 0.703096C14.3275 0.759597 14.3276 0.816098 14.3276 0.872599C14.3278 1.02851 14.3278 1.18442 14.3278 1.34032C14.3278 1.50822 14.3279 1.67611 14.3281 1.844C14.3283 2.17318 14.3284 2.50235 14.3284 2.83152C14.3284 3.09897 14.3285 3.36642 14.3286 3.63386C14.3288 4.26801 14.329 4.90215 14.329 5.5363C14.329 5.56674 14.329 5.56674 14.329 5.59779C14.329 5.70066 14.329 5.80352 14.329 5.90638C14.329 5.92681 14.329 5.94724 14.329 5.96829C14.329 6.00961 14.329 6.05092 14.329 6.09223C14.3289 6.73514 14.3292 7.37804 14.3296 8.02094C14.33 8.74275 14.3303 9.46455 14.3302 10.1864C14.3302 10.5687 14.3303 10.9511 14.3306 11.3335C14.3309 11.659 14.331 11.9845 14.3308 12.31C14.3307 12.4762 14.3307 12.6424 14.3309 12.8086C14.3311 12.9606 14.3311 13.1126 14.3309 13.2646C14.3308 13.3198 14.3309 13.3749 14.331 13.43C14.3312 13.5047 14.3311 13.5793 14.3308 13.654C14.331 13.6757 14.3311 13.6973 14.3313 13.7197C14.3305 13.827 14.3283 13.911 14.2647 14C14.1494 14.0769 14.0514 14.0675 13.9177 14.0674C13.8912 14.0676 13.8648 14.0678 13.8375 14.068C13.7499 14.0685 13.6623 14.0687 13.5747 14.0687C13.5138 14.0689 13.453 14.0691 13.3921 14.0693C13.2645 14.0697 13.1369 14.0698 13.0092 14.0697C12.8457 14.0697 12.6821 14.0705 12.5186 14.0716C12.3929 14.0722 12.2672 14.0723 12.1415 14.0723C12.0812 14.0724 12.0209 14.0726 11.9606 14.0731C11.8762 14.0737 11.7919 14.0735 11.7075 14.0731C11.6826 14.0735 11.6577 14.0738 11.6321 14.0741C11.609 14.0739 11.5859 14.0736 11.5621 14.0734C11.5422 14.0734 11.5222 14.0734 11.5017 14.0735C11.4076 14.0507 11.3618 14.0102 11.2941 13.9412C11.2794 13.8586 11.2743 13.7937 11.2757 13.7112C11.2754 13.676 11.2754 13.676 11.2751 13.6401C11.2745 13.5611 11.2751 13.4821 11.2756 13.403C11.2755 13.346 11.2753 13.289 11.275 13.2319C11.2744 13.0748 11.2748 12.9177 11.2753 12.7606C11.2757 12.5913 11.2752 12.422 11.2749 12.2527C11.2744 11.9209 11.2746 11.5891 11.2751 11.2573C11.2755 10.9877 11.2757 10.7181 11.2756 10.4486C11.2756 10.4103 11.2755 10.3719 11.2755 10.3325C11.2755 10.2546 11.2755 10.1768 11.2754 10.099C11.2752 9.3894 11.2757 8.67983 11.2766 7.97026C11.2774 7.32221 11.2776 6.67417 11.2771 6.02612C11.277 5.86019 11.2769 5.69426 11.2768 5.52832C11.2768 5.5079 11.2768 5.48747 11.2768 5.46642C11.2764 4.92526 11.2767 4.3841 11.277 3.84293C11.2771 3.76538 11.2772 3.68784 11.2772 3.61029C11.2772 3.57213 11.2773 3.53397 11.2773 3.49466C11.2775 3.22529 11.2774 2.95593 11.2772 2.68657C11.2769 2.35846 11.2771 2.03036 11.2779 1.70225C11.2782 1.53474 11.2784 1.36722 11.2781 1.1997C11.2778 1.04651 11.278 0.893332 11.2787 0.740142C11.2789 0.684566 11.2788 0.62899 11.2786 0.573415C11.2782 0.498162 11.2786 0.422947 11.2792 0.347697C11.2789 0.325862 11.2787 0.304027 11.2784 0.28153C11.2799 0.179717 11.2869 0.126878 11.3503 0.0453867C11.4178 -0.0044265 11.4474 -0.014742 11.5301 -0.0149242ZM11.8235 0.529427C11.8235 4.81943 11.8235 9.10943 11.8235 13.5294C12.4738 13.5294 13.1241 13.5294 13.7941 13.5294C13.7941 9.23943 13.7941 4.94943 13.7941 0.529427C13.1438 0.529427 12.4935 0.529427 11.8235 0.529427Z" fill="white"/>
<path d="M4.5312 2.9816C4.55396 2.98122 4.57672 2.98085 4.60017 2.98047C4.63698 2.98098 4.63698 2.98098 4.67454 2.98151C4.70071 2.9813 4.72689 2.98109 4.75386 2.98087C4.84022 2.98038 4.92653 2.98095 5.01289 2.98158C5.07299 2.98155 5.13309 2.98148 5.1932 2.98136C5.3191 2.98128 5.44498 2.98171 5.57088 2.98252C5.73219 2.98352 5.89348 2.98334 6.0548 2.98279C6.17889 2.98248 6.30297 2.98274 6.42706 2.98318C6.48654 2.98334 6.54602 2.98332 6.60549 2.98314C6.68865 2.98298 6.77176 2.98358 6.85491 2.98438C6.87946 2.98419 6.904 2.984 6.92928 2.9838C7.0468 2.98573 7.10423 2.99151 7.20578 3.0562C7.30116 3.15574 7.29783 3.21539 7.29792 3.35065C7.29801 3.38799 7.29811 3.42533 7.29821 3.46379C7.29816 3.50562 7.29812 3.54744 7.29807 3.58926C7.29812 3.63339 7.29819 3.67752 7.29827 3.72164C7.29845 3.84335 7.29845 3.96505 7.29841 4.08675C7.29841 4.21784 7.29857 4.34892 7.29871 4.48C7.29895 4.73698 7.29903 4.99397 7.29905 5.25095C7.29906 5.45976 7.29912 5.66857 7.29922 5.87737C7.29948 6.46887 7.29961 7.06036 7.29959 7.65185C7.29959 7.68377 7.29959 7.71568 7.29959 7.74856C7.29959 7.78052 7.29958 7.81247 7.29958 7.84539C7.29957 8.36339 7.29985 8.88139 7.30027 9.39939C7.30069 9.93077 7.30089 10.4621 7.30087 10.9935C7.30086 11.292 7.30094 11.5906 7.30125 11.8891C7.30152 12.1433 7.30159 12.3974 7.30139 12.6516C7.30129 12.7813 7.30129 12.9111 7.30154 13.0408C7.30177 13.1595 7.30173 13.2782 7.30148 13.3969C7.30143 13.4399 7.30149 13.4829 7.30165 13.526C7.30186 13.5843 7.30167 13.6426 7.30146 13.7009C7.30146 13.7334 7.30147 13.7658 7.30148 13.7992C7.29405 13.8834 7.2822 13.9305 7.23531 14.0001C7.12011 14.0769 7.02203 14.0678 6.8883 14.0679C6.86185 14.0682 6.83539 14.0684 6.80813 14.0687C6.72052 14.0694 6.63291 14.0696 6.54529 14.0698C6.48444 14.0701 6.42359 14.0703 6.36274 14.0706C6.23511 14.0711 6.10749 14.0713 5.97986 14.0714C5.8163 14.0716 5.65276 14.0727 5.4892 14.074C5.3635 14.0749 5.2378 14.0751 5.11209 14.0751C5.05179 14.0753 4.9915 14.0756 4.9312 14.0762C4.84684 14.077 4.76253 14.0769 4.67817 14.0765C4.6408 14.0772 4.6408 14.0772 4.60269 14.0778C4.5796 14.0776 4.55651 14.0773 4.53272 14.077C4.5128 14.077 4.49287 14.0771 4.47235 14.0772C4.37502 14.0478 4.32939 13.9885 4.26472 13.9118C4.24629 13.8247 4.24629 13.8247 4.24622 13.726C4.24583 13.6883 4.24545 13.6506 4.24506 13.6118C4.24537 13.57 4.24571 13.5282 4.24605 13.4865C4.24588 13.442 4.24565 13.3976 4.24536 13.3532C4.24474 13.2311 4.24505 13.109 4.2455 12.9868C4.24583 12.8552 4.24532 12.7235 4.24491 12.5918C4.24426 12.3338 4.2444 12.0758 4.24483 11.8178C4.24516 11.6082 4.24521 11.3986 4.24505 11.1889C4.24502 11.1591 4.245 11.1293 4.24498 11.0986C4.24493 11.038 4.24488 10.9775 4.24483 10.9169C4.24441 10.3488 4.2449 9.78061 4.24569 9.21246C4.24634 8.72474 4.24623 8.23704 4.24555 7.74933C4.24477 7.18323 4.24446 6.61714 4.24491 6.05105C4.24495 5.99071 4.245 5.93036 4.24505 5.87002C4.24507 5.84033 4.24509 5.81064 4.24511 5.78005C4.24524 5.57062 4.24503 5.36119 4.24468 5.15176C4.24427 4.89661 4.24438 4.64146 4.24516 4.3863C4.24555 4.25607 4.2457 4.12584 4.24522 3.99561C4.24478 3.87644 4.24502 3.7573 4.2458 3.63814C4.24596 3.59498 4.24588 3.55181 4.24552 3.50865C4.24508 3.45008 4.24562 3.3915 4.24622 3.33293C4.24624 3.30037 4.24627 3.2678 4.24629 3.23425C4.27707 3.0888 4.37801 2.98173 4.5312 2.9816ZM4.79414 3.52948C4.79414 6.82948 4.79414 10.1295 4.79414 13.5295C5.44443 13.5295 6.09472 13.5295 6.76472 13.5295C6.76472 10.2295 6.76472 6.92948 6.76472 3.52948C6.11443 3.52948 5.46414 3.52948 4.79414 3.52948Z" fill="white"/>
<path d="M8.25195 5.99183C8.27698 5.99168 8.30201 5.99153 8.3278 5.99138C8.41032 5.99097 8.49284 5.991 8.57536 5.99107C8.63283 5.99095 8.6903 5.99082 8.74776 5.99068C8.86812 5.99047 8.98847 5.99047 9.10882 5.99063C9.26301 5.9908 9.41719 5.9903 9.57138 5.98962C9.69002 5.98918 9.80866 5.98916 9.9273 5.98925C9.98415 5.98924 10.041 5.98908 10.0978 5.98879C10.1773 5.98842 10.2568 5.98862 10.3363 5.98896C10.3714 5.98863 10.3714 5.98863 10.4073 5.98828C10.5789 5.98991 10.6739 6.02677 10.7941 6.14697C10.8016 6.2039 10.8016 6.2039 10.8018 6.27506C10.802 6.30214 10.8022 6.32921 10.8024 6.35711C10.8023 6.38705 10.8022 6.41699 10.8022 6.44783C10.8023 6.47949 10.8025 6.51114 10.8026 6.54376C10.8031 6.65054 10.8031 6.75731 10.8031 6.86409C10.8033 6.94036 10.8036 7.01663 10.8039 7.0929C10.8045 7.3006 10.8048 7.50831 10.8049 7.71601C10.805 7.84566 10.8052 7.9753 10.8054 8.10495C10.806 8.46375 10.8065 8.82255 10.8066 9.18136C10.8066 9.21582 10.8066 9.21582 10.8066 9.25098C10.8066 9.29755 10.8066 9.34413 10.8066 9.39071C10.8066 9.42539 10.8066 9.42539 10.8066 9.46077C10.8066 9.48392 10.8066 9.50707 10.8066 9.53092C10.8067 9.90607 10.8075 10.2812 10.8086 10.6564C10.8098 11.0413 10.8103 11.4263 10.8103 11.8113C10.8104 12.0275 10.8106 12.2437 10.8115 12.4599C10.8123 12.6633 10.8123 12.8666 10.8118 13.0699C10.8118 13.1447 10.812 13.2194 10.8124 13.2941C10.813 13.396 10.8127 13.4978 10.8122 13.5996C10.8128 13.6442 10.8128 13.6442 10.8134 13.6897C10.8117 13.8258 10.8091 13.8911 10.727 14.0036C10.6498 14.0568 10.6178 14.0771 10.5263 14.0772C10.4917 14.0778 10.4917 14.0778 10.4565 14.0783C10.4316 14.078 10.4068 14.0777 10.3811 14.0773C10.3546 14.0775 10.3281 14.0777 10.3008 14.0779C10.2133 14.0784 10.1259 14.0779 10.0385 14.0772C9.97765 14.0773 9.91681 14.0773 9.85598 14.0774C9.72857 14.0775 9.60118 14.0771 9.47378 14.0763C9.31042 14.0753 9.14708 14.0755 8.98372 14.076C8.85814 14.0763 8.73257 14.0761 8.60699 14.0756C8.54675 14.0755 8.48651 14.0755 8.42627 14.0757C8.34212 14.0758 8.25801 14.0752 8.17387 14.0744C8.14895 14.0746 8.12403 14.0748 8.09835 14.075C7.92943 14.0723 7.92943 14.0723 7.83839 14.0026C7.77394 13.9131 7.76101 13.8644 7.76083 13.7556C7.76072 13.7288 7.76061 13.702 7.76049 13.6744C7.76052 13.6448 7.76054 13.6152 7.76057 13.5848C7.76048 13.5535 7.7604 13.5222 7.76031 13.4899C7.76005 13.3844 7.76001 13.2788 7.75996 13.1732C7.75983 13.0978 7.75968 13.0224 7.75952 12.947C7.75913 12.7417 7.75894 12.5364 7.75881 12.331C7.75873 12.2029 7.75861 12.0747 7.75847 11.9465C7.75812 11.5918 7.75781 11.2371 7.75771 10.8824C7.75771 10.8597 7.7577 10.837 7.75769 10.8136C7.75769 10.7908 7.75768 10.768 7.75767 10.7446C7.75766 10.6984 7.75765 10.6523 7.75763 10.6062C7.75763 10.5833 7.75762 10.5604 7.75762 10.5368C7.7575 10.1659 7.75699 9.79508 7.7563 9.42422C7.7556 9.04363 7.75524 8.66305 7.7552 8.28246C7.75518 8.06871 7.75501 7.85495 7.75447 7.6412C7.75397 7.44018 7.75392 7.23916 7.75418 7.03814C7.75421 6.96426 7.75408 6.89038 7.75379 6.8165C7.75341 6.71584 7.75358 6.61518 7.75389 6.51451C7.75365 6.48511 7.75342 6.45571 7.75317 6.42542C7.75422 6.28007 7.75536 6.17528 7.85294 6.05874C7.97727 5.9839 8.11091 5.9914 8.25195 5.99183ZM8.29411 6.52932C8.29411 8.83932 8.29411 11.1493 8.29411 13.5293C8.94441 13.5293 9.5947 13.5293 10.2647 13.5293C10.2647 11.2193 10.2647 8.90932 10.2647 6.52932C9.61441 6.52932 8.96411 6.52932 8.29411 6.52932Z" fill="white"/>
<path d="M0 14.5293C4.96941 14.5293 9.93882 14.5293 15.0588 14.5293C15.0588 14.704 15.0588 14.8787 15.0588 15.0587C10.0894 15.0587 5.12 15.0587 0 15.0587C0 14.884 0 14.7093 0 14.5293Z" fill="white"/>
<path d="M1.14114 9.02044C1.18082 9.02007 1.18082 9.02007 1.22131 9.0197C1.30893 9.01899 1.39654 9.01873 1.48416 9.01853C1.54501 9.01827 1.60585 9.018 1.6667 9.01773C1.79433 9.01724 1.92196 9.01702 2.04959 9.01693C2.21315 9.01677 2.37669 9.01567 2.54024 9.01432C2.66594 9.01345 2.79164 9.01324 2.91735 9.01321C2.97765 9.01308 3.03795 9.01272 3.09824 9.0121C3.1826 9.01131 3.26691 9.01145 3.35127 9.01182C3.37618 9.01138 3.40109 9.01095 3.42676 9.0105C3.44985 9.01079 3.47294 9.01107 3.49673 9.01137C3.52661 9.01128 3.52661 9.01128 3.55709 9.01119C3.65625 9.04108 3.70132 9.09647 3.76472 9.17651C3.78323 9.26869 3.78323 9.26869 3.78339 9.37429C3.78362 9.39379 3.78385 9.41329 3.78409 9.43338C3.78467 9.49851 3.78421 9.56359 3.78375 9.62872C3.78395 9.67549 3.78421 9.72227 3.78453 9.76904C3.7852 9.89592 3.78494 10.0228 3.78447 10.1497C3.7841 10.2825 3.78445 10.4152 3.78468 10.548C3.78494 10.771 3.78459 10.9939 3.78389 11.2168C3.78309 11.4747 3.78335 11.7324 3.78416 11.9903C3.78483 12.2116 3.78492 12.4329 3.78454 12.6543C3.78431 12.7865 3.78428 12.9187 3.78476 13.0509C3.78519 13.1751 3.78489 13.2994 3.78404 13.4236C3.78385 13.4692 3.7839 13.5149 3.78423 13.5605C3.78463 13.6227 3.78413 13.6849 3.78339 13.7472C3.78331 13.7994 3.78331 13.7994 3.78323 13.8527C3.76472 13.9412 3.76472 13.9412 3.69757 14.0112C3.62034 14.0573 3.5847 14.0736 3.49693 14.0738C3.47388 14.0741 3.45083 14.0745 3.42708 14.0748C3.40222 14.0746 3.37736 14.0743 3.35174 14.0741C3.31197 14.0744 3.31197 14.0744 3.2714 14.0747C3.18396 14.0752 3.09654 14.0749 3.00909 14.0745C2.94826 14.0746 2.88742 14.0747 2.82659 14.0748C2.69918 14.075 2.57179 14.0747 2.44439 14.0742C2.28102 14.0735 2.11768 14.0739 1.95432 14.0746C1.82875 14.075 1.70317 14.0749 1.57759 14.0746C1.51735 14.0745 1.45711 14.0746 1.39688 14.0749C1.31273 14.0752 1.22862 14.0747 1.14448 14.0741C1.11956 14.0743 1.09463 14.0746 1.06896 14.0748C0.900028 14.0724 0.900028 14.0724 0.808999 14.0028C0.731789 13.8954 0.731565 13.8306 0.731375 13.6986C0.731275 13.67 0.731275 13.67 0.731173 13.6408C0.730986 13.5766 0.731011 13.5125 0.731035 13.4483C0.730947 13.4024 0.730847 13.3565 0.730736 13.3106C0.730475 13.1857 0.730407 13.0609 0.730388 12.936C0.73036 12.8318 0.730252 12.7277 0.730148 12.6235C0.729908 12.3778 0.729837 12.1321 0.729857 11.8864C0.729875 11.6328 0.729565 11.3791 0.7291 11.1255C0.728716 10.9079 0.728558 10.6903 0.728577 10.4727C0.728584 10.3427 0.7285 10.2127 0.728189 10.0826C0.727905 9.96033 0.727902 9.83803 0.728116 9.71573C0.728147 9.67082 0.728077 9.62591 0.7279 9.581C0.727673 9.51973 0.727809 9.45847 0.728036 9.39721C0.728012 9.34576 0.728012 9.34576 0.727987 9.29327C0.735224 9.20691 0.745688 9.1593 0.794131 9.08827C0.909338 9.01147 1.00741 9.02054 1.14114 9.02044ZM1.26472 9.55886C1.26472 10.8692 1.26472 12.1794 1.26472 13.5294C1.91501 13.5294 2.56531 13.5294 3.23531 13.5294C3.23531 12.2192 3.23531 10.9089 3.23531 9.55886C2.58501 9.55886 1.93472 9.55886 1.26472 9.55886Z" fill="white"/>
</g>
<defs>
<clipPath id="clip0_543_467">
<rect width="15" height="15" fill="white"/>
</clipPath>
</defs>
</svg>
