<svg width="20" height="21" viewBox="0 0 20 21" fill="none" xmlns="http://www.w3.org/2000/svg">
<path d="M2.49997 18.7501H6.68269V12.452C6.68269 12.1319 6.79096 11.8636 7.0075 11.647C7.22404 11.4305 7.49237 11.3222 7.8125 11.3222H12.1874C12.5076 11.3222 12.7759 11.4305 12.9924 11.647C13.209 11.8636 13.3173 12.1319 13.3173 12.452V18.7501H17.5V7.69242C17.5 7.62832 17.4859 7.57022 17.4579 7.51814C17.4298 7.46606 17.3918 7.41998 17.3437 7.37992L10.2283 2.03136C10.1642 1.97528 10.0881 1.94723 9.99997 1.94723C9.91182 1.94723 9.8357 1.97528 9.77159 2.03136L2.65622 7.37992C2.60816 7.41998 2.57009 7.46606 2.54203 7.51814C2.51399 7.57022 2.49997 7.62832 2.49997 7.69242V18.7501ZM0.625 18.7501V7.69242C0.625 7.33465 0.705031 6.99571 0.865094 6.67561C1.02516 6.35551 1.24641 6.09189 1.52884 5.88477L8.64422 0.524202C9.03907 0.222911 9.49034 0.0722656 9.99803 0.0722656C10.5057 0.0722656 10.9583 0.222911 11.3557 0.524202L18.4711 5.88477C18.7535 6.09189 18.9748 6.35551 19.1348 6.67561C19.2949 6.99571 19.3749 7.33465 19.3749 7.69242V18.7501C19.3749 19.2613 19.1902 19.7016 18.8208 20.071C18.4515 20.4404 18.0112 20.6251 17.5 20.6251H12.5721C12.252 20.6251 11.9837 20.5168 11.7671 20.3002C11.5506 20.0837 11.4423 19.8154 11.4423 19.4953V13.1972H8.55766V19.4953C8.55766 19.8154 8.44939 20.0837 8.23284 20.3002C8.01628 20.5168 7.74795 20.6251 7.42784 20.6251H2.49997C1.98876 20.6251 1.54847 20.4404 1.17909 20.071C0.809698 19.7016 0.625 19.2613 0.625 18.7501Z" fill="white"/>
</svg>
