<svg width="20" height="16" viewBox="0 0 20 16" fill="none" xmlns="http://www.w3.org/2000/svg">
<path d="M2.30788 15.5C1.80275 15.5 1.37518 15.325 1.02518 14.975C0.675183 14.625 0.500183 14.1974 0.500183 13.6923V2.3077C0.500183 1.80257 0.675183 1.375 1.02518 1.025C1.37518 0.675 1.80275 0.5 2.30788 0.5H17.6924C18.1976 0.5 18.6251 0.675 18.9751 1.025C19.3251 1.375 19.5001 1.80257 19.5001 2.3077V13.6923C19.5001 14.1974 19.3251 14.625 18.9751 14.975C18.6251 15.325 18.1976 15.5 17.6924 15.5H2.30788ZM18.0002 3.44225L10.4867 8.25188C10.4098 8.29546 10.3303 8.32975 10.2482 8.35475C10.1662 8.37975 10.0835 8.39225 10.0002 8.39225C9.91683 8.39225 9.83413 8.37975 9.75208 8.35475C9.67003 8.32975 9.59055 8.29546 9.51363 8.25188L2.00016 3.44225V13.6923C2.00016 13.782 2.02901 13.8557 2.08671 13.9134C2.14441 13.9711 2.21813 14 2.30788 14H17.6924C17.7822 14 17.8559 13.9711 17.9136 13.9134C17.9713 13.8557 18.0002 13.782 18.0002 13.6923V3.44225ZM10.0002 6.99998L17.8463 1.99998H2.15401L10.0002 6.99998ZM2.00016 3.673V2.52978V2.55957V2.52785V3.673Z" fill="#DCD6F7"/>
</svg>
