<svg width="23" height="23" viewBox="0 0 23 23" fill="none" xmlns="http://www.w3.org/2000/svg">
<path d="M15.8053 11.8101L11.214 7.21889C11.0969 7.10201 11.0143 6.97805 10.9662 6.84701C10.9183 6.71618 10.8943 6.57597 10.8943 6.42639C10.8943 6.2768 10.9183 6.13712 10.9662 6.00732C11.0143 5.87753 11.0969 5.7542 11.214 5.63733L15.8053 1.04576C15.9221 0.928888 16.0461 0.846387 16.1771 0.798262C16.308 0.750137 16.4482 0.726074 16.5978 0.726074C16.7474 0.726074 16.887 0.750137 17.0168 0.798262C17.1466 0.846387 17.27 0.928888 17.3868 1.04576L21.9784 5.63733C22.0953 5.7542 22.1778 5.87805 22.2259 6.00889C22.274 6.13972 22.2981 6.27993 22.2981 6.42951C22.2981 6.5791 22.274 6.71878 22.2259 6.84858C22.1778 6.97858 22.0953 7.10201 21.9784 7.21889L17.3868 11.8101C17.27 11.9272 17.1461 12.0097 17.0153 12.0576C16.8842 12.1058 16.744 12.1298 16.5946 12.1298C16.4451 12.1298 16.3053 12.1058 16.1753 12.0576C16.0455 12.0097 15.9221 11.9272 15.8053 11.8101ZM0.759644 9.37983V2.88951C0.759644 2.56951 0.867873 2.30118 1.08433 2.08451C1.301 1.86805 1.56933 1.75982 1.88933 1.75982H8.37964C8.69985 1.75982 8.96819 1.86805 9.18464 2.08451C9.40131 2.30118 9.50964 2.56951 9.50964 2.88951V9.37983C9.50964 9.70003 9.40131 9.96837 9.18464 10.1848C8.96819 10.4015 8.69985 10.5098 8.37964 10.5098H1.88933C1.56933 10.5098 1.301 10.4015 1.08433 10.1848C0.867873 9.96837 0.759644 9.70003 0.759644 9.37983ZM12.4903 21.1108V14.6205C12.4903 14.3002 12.5986 14.0319 12.8153 13.8154C13.0317 13.5988 13.3001 13.4905 13.6203 13.4905H20.1106C20.4306 13.4905 20.6989 13.5988 20.9156 13.8154C21.132 14.0319 21.2403 14.3002 21.2403 14.6205V21.1108C21.2403 21.4308 21.132 21.6991 20.9156 21.9158C20.6989 22.1322 20.4306 22.2404 20.1106 22.2404H13.6203C13.3001 22.2404 13.0317 22.1322 12.8153 21.9158C12.5986 21.6991 12.4903 21.4308 12.4903 21.1108ZM0.759644 21.1108V14.6205C0.759644 14.3002 0.867873 14.0319 1.08433 13.8154C1.301 13.5988 1.56933 13.4905 1.88933 13.4905H8.37964C8.69985 13.4905 8.96819 13.5988 9.18464 13.8154C9.40131 14.0319 9.50964 14.3002 9.50964 14.6205V21.1108C9.50964 21.4308 9.40131 21.6991 9.18464 21.9158C8.96819 22.1322 8.69985 22.2404 8.37964 22.2404H1.88933C1.56933 22.2404 1.301 22.1322 1.08433 21.9158C0.867873 21.6991 0.759644 21.4308 0.759644 21.1108ZM2.63464 8.63482H7.63464V3.63482H2.63464V8.63482ZM16.6275 9.99045L20.1587 6.4592L16.6275 2.92795L13.0962 6.4592L16.6275 9.99045ZM14.3653 20.3654H19.3653V15.3655H14.3653V20.3654ZM2.63464 20.3654H7.63464V15.3655H2.63464V20.3654Z" fill="white"/>
</svg>
