<svg width="14" height="14" viewBox="0 0 14 14" fill="none" xmlns="http://www.w3.org/2000/svg">
<path d="M3.61605 9.3125H10.3125C10.455 9.3125 10.5743 9.25863 10.6704 9.15088C10.7666 9.04325 10.8147 8.90963 10.8147 8.75C10.8147 8.59037 10.7666 8.45675 10.6704 8.34912C10.5743 8.24137 10.455 8.1875 10.3125 8.1875H3.61605C3.47353 8.1875 3.35422 8.24137 3.25813 8.34912C3.16192 8.45675 3.11382 8.59037 3.11382 8.75C3.11382 8.90963 3.16192 9.04325 3.25813 9.15088C3.35422 9.25863 3.47353 9.3125 3.61605 9.3125ZM3.61605 7.0625H10.3125C10.455 7.0625 10.5743 7.00863 10.6704 6.90088C10.7666 6.79325 10.8147 6.65963 10.8147 6.5C10.8147 6.34037 10.7666 6.20675 10.6704 6.09912C10.5743 5.99137 10.455 5.9375 10.3125 5.9375H3.61605C3.47353 5.9375 3.35422 5.99137 3.25813 6.09912C3.16192 6.20675 3.11382 6.34037 3.11382 6.5C3.11382 6.65963 3.16192 6.79325 3.25813 6.90088C3.35422 7.00863 3.47353 7.0625 3.61605 7.0625ZM3.61605 4.8125H10.3125C10.455 4.8125 10.5743 4.75863 10.6704 4.65088C10.7666 4.54325 10.8147 4.40963 10.8147 4.25C10.8147 4.09037 10.7666 3.95675 10.6704 3.84912C10.5743 3.74137 10.455 3.6875 10.3125 3.6875H3.61605C3.47353 3.6875 3.35422 3.74137 3.25813 3.84912C3.16192 3.95675 3.11382 4.09037 3.11382 4.25C3.11382 4.40963 3.16192 4.54325 3.25813 4.65088C3.35422 4.75863 3.47353 4.8125 3.61605 4.8125ZM1.81321 12.125C1.47493 12.125 1.1886 11.9938 0.954224 11.7313C0.719849 11.4688 0.602661 11.1481 0.602661 10.7692V2.23081C0.602661 1.85194 0.719849 1.53125 0.954224 1.26875C1.1886 1.00625 1.47493 0.875 1.81321 0.875H12.1153C12.4536 0.875 12.7399 1.00625 12.9743 1.26875C13.2087 1.53125 13.3259 1.85194 13.3259 2.23081V13.1403C13.3259 13.4442 13.202 13.6546 12.9544 13.7714C12.7066 13.8882 12.4875 13.8398 12.297 13.6263L10.9563 12.125H1.81321ZM11.3839 11L12.3214 12.0386V2.23081C12.3214 2.17306 12.2999 2.12019 12.257 2.07219C12.2141 2.02406 12.1669 2 12.1153 2H1.81321C1.76165 2 1.71444 2.02406 1.67158 2.07219C1.62861 2.12019 1.60713 2.17306 1.60713 2.23081V10.7692C1.60713 10.8269 1.62861 10.8798 1.67158 10.9278C1.71444 10.9759 1.76165 11 1.81321 11H11.3839Z" fill="#DCD6F7"/>
</svg>
