<svg width="17" height="20" viewBox="0 0 17 20" fill="none" xmlns="http://www.w3.org/2000/svg">
<path d="M7.99828 19.6923C7.50069 19.6923 7.0753 19.5153 6.7221 19.1613C6.3689 18.8073 6.1923 18.3817 6.1923 17.8846H9.80765C9.80765 18.3833 9.63048 18.8093 9.27615 19.1625C8.92182 19.5157 8.49586 19.6923 7.99828 19.6923ZM1.25 16.8846C1.0375 16.8846 0.859375 16.8127 0.715625 16.6689C0.571875 16.5251 0.5 16.3469 0.5 16.1343C0.5 15.9217 0.571875 15.7436 0.715625 15.6C0.859375 15.4564 1.0375 15.3846 1.25 15.3846H2.3077V7.92305C2.3077 6.57818 2.72276 5.38908 3.55287 4.35575C4.38301 3.32242 5.44872 2.66153 6.75 2.37308V1.75C6.75 1.40278 6.87142 1.10765 7.11425 0.864601C7.35708 0.621534 7.65195 0.5 7.99885 0.5C8.34575 0.5 8.64099 0.621534 8.88457 0.864601C9.12816 1.10765 9.24995 1.40278 9.24995 1.75V1.94998C9.08585 2.24613 8.95572 2.54741 8.85957 2.85383C8.76342 3.16023 8.70445 3.47817 8.68265 3.80765C8.56887 3.78713 8.45793 3.76918 8.34985 3.7538C8.24175 3.73842 8.12512 3.73073 7.99997 3.73073C6.84227 3.73073 5.85413 4.14003 5.03555 4.95863C4.21695 5.77721 3.80765 6.76535 3.80765 7.92305V15.3846H12.1923V9.1327C12.4218 9.21475 12.6641 9.27885 12.9192 9.325C13.1743 9.37115 13.432 9.39103 13.6922 9.38463V15.3846H14.75C14.9625 15.3846 15.1406 15.4565 15.2843 15.6003C15.4281 15.7441 15.5 15.9223 15.5 16.1349C15.5 16.3475 15.4281 16.5256 15.2843 16.6692C15.1406 16.8128 14.9625 16.8846 14.75 16.8846H1.25ZM13.4818 7.20193C12.7183 7.20193 12.0688 6.93468 11.5336 6.40018C10.9983 5.86568 10.7307 5.21663 10.7307 4.45305C10.7307 3.68948 10.998 3.04008 11.5325 2.50483C12.067 1.96958 12.716 1.70195 13.4796 1.70195C14.2431 1.70195 14.8925 1.9692 15.4278 2.5037C15.9631 3.0382 16.2307 3.68723 16.2307 4.4508C16.2307 5.21437 15.9634 5.86378 15.4289 6.39903C14.8944 6.93429 14.2454 7.20193 13.4818 7.20193Z" fill="#424874"/>
</svg>
