<svg width="14" height="22" viewBox="0 0 14 22" fill="none" xmlns="http://www.w3.org/2000/svg">
<path d="M2.30773 21.4999C1.8026 21.4999 1.37503 21.3249 1.02503 20.9749C0.675031 20.6249 0.500031 20.1974 0.500031 19.6923V2.3077C0.500031 1.80257 0.675031 1.375 1.02503 1.025C1.37503 0.675 1.8026 0.5 2.30773 0.5H11.6923C12.1974 0.5 12.625 0.675 12.975 1.025C13.325 1.375 13.5 1.80257 13.5 2.3077V19.6923C13.5 20.1974 13.325 20.625 12.975 20.975C12.625 21.325 12.1974 21.5 11.6923 21.5L2.30773 21.4999ZM2.00001 16.7692V19.6923C2.00001 19.7692 2.03206 19.8397 2.09616 19.9039C2.16027 19.968 2.2308 20 2.30773 20H11.6923C11.7692 20 11.8397 19.968 11.9039 19.9039C11.968 19.8397 12 19.7692 12 19.6923V16.7692H2.00001ZM7.00001 19.2692C7.24487 19.2692 7.45352 19.183 7.62596 19.0106C7.79839 18.8381 7.8846 18.6295 7.8846 18.3846C7.8846 18.1397 7.79839 17.9311 7.62596 17.7587C7.45352 17.5862 7.24487 17.5 7.00001 17.5C6.75514 17.5 6.54649 17.5862 6.37406 17.7586C6.20162 17.9311 6.11541 18.1397 6.11541 18.3846C6.11541 18.6294 6.20162 18.8381 6.37406 19.0105C6.54649 19.183 6.75514 19.2692 7.00001 19.2692ZM2.00001 15.2692H12V4.74995H2.00001V15.2692ZM2.00001 3.25H12V2.3077C12 2.23077 11.968 2.16024 11.9039 2.09613C11.8397 2.03203 11.7692 1.99998 11.6923 1.99998H2.30773C2.2308 1.99998 2.16027 2.03203 2.09616 2.09613C2.03206 2.16024 2.00001 2.23077 2.00001 2.3077V3.25Z" fill="#DCD6F7"/>
</svg>
