<svg width="20" height="20" viewBox="0 0 20 20" fill="none" xmlns="http://www.w3.org/2000/svg">
<path d="M18.9336 13.2559L14.334 11.1944L14.3223 11.1885C14.0833 11.0862 13.8226 11.0451 13.5637 11.069C13.3049 11.0929 13.0561 11.1809 12.8399 11.3252C12.8144 11.342 12.79 11.3603 12.7666 11.3799L10.3897 13.4063C8.8838 12.6749 7.32911 11.1319 6.59767 9.64556L8.62696 7.23247C8.64649 7.20805 8.66505 7.18364 8.68263 7.15727C8.82367 6.94175 8.90924 6.6947 8.93173 6.43811C8.95422 6.18152 8.91293 5.92335 8.81153 5.68657C8.81115 5.68267 8.81115 5.67875 8.81153 5.67485L6.74415 1.06645C6.61011 0.757141 6.37962 0.499475 6.08711 0.33192C5.79459 0.164365 5.45572 0.0959068 5.1211 0.136765C3.79783 0.310893 2.58319 0.960758 1.70405 1.96498C0.824899 2.96921 0.341366 4.25912 0.343759 5.5938C0.343759 13.3477 6.65235 19.6563 14.4063 19.6563C15.7409 19.6587 17.0308 19.1752 18.0351 18.296C19.0393 17.4169 19.6892 16.2022 19.8633 14.879C19.9042 14.5443 19.8357 14.2055 19.6681 13.913C19.5006 13.6204 19.2429 13.3899 18.9336 13.2559ZM14.4063 18.0938C11.0922 18.0902 7.91484 16.7721 5.57142 14.4286C3.228 12.0852 1.90988 8.90789 1.90626 5.5938C1.90259 4.64017 2.24615 3.71782 2.8728 2.99898C3.49944 2.28014 4.36632 1.81398 5.31153 1.68755C5.31115 1.69144 5.31115 1.69537 5.31153 1.69927L7.36231 6.28911L5.34376 8.70512C5.32327 8.7287 5.30466 8.75384 5.28809 8.78032C5.14114 9.00583 5.05493 9.26547 5.03782 9.53409C5.02071 9.80271 5.07328 10.0712 5.19044 10.3135C6.0752 12.1231 7.89845 13.9327 9.72755 14.8165C9.97165 14.9325 10.2417 14.9833 10.5113 14.9638C10.7809 14.9442 11.0408 14.8551 11.2656 14.7051C11.2909 14.6882 11.3151 14.6696 11.3379 14.6495L13.7119 12.625L18.3018 14.6817C18.3018 14.6817 18.3096 14.6817 18.3125 14.6817C18.1874 15.6281 17.7218 16.4964 17.0029 17.1244C16.2839 17.7524 15.3609 18.097 14.4063 18.0938ZM11.2813 4.81255C11.2813 4.60535 11.3636 4.40663 11.5101 4.26012C11.6566 4.11361 11.8553 4.0313 12.0625 4.0313H14.4063V1.68755C14.4063 1.48035 14.4886 1.28163 14.6351 1.13512C14.7816 0.988607 14.9803 0.906297 15.1875 0.906297C15.3947 0.906297 15.5934 0.988607 15.7399 1.13512C15.8865 1.28163 15.9688 1.48035 15.9688 1.68755V4.0313H18.3125C18.5197 4.0313 18.7184 4.11361 18.8649 4.26012C19.0115 4.40663 19.0938 4.60535 19.0938 4.81255C19.0938 5.01975 19.0115 5.21846 18.8649 5.36497C18.7184 5.51149 18.5197 5.5938 18.3125 5.5938H15.9688V7.93755C15.9688 8.14475 15.8865 8.34346 15.7399 8.48997C15.5934 8.63649 15.3947 8.7188 15.1875 8.7188C14.9803 8.7188 14.7816 8.63649 14.6351 8.48997C14.4886 8.34346 14.4063 8.14475 14.4063 7.93755V5.5938H12.0625C11.8553 5.5938 11.6566 5.51149 11.5101 5.36497C11.3636 5.21846 11.2813 5.01975 11.2813 4.81255Z" fill="#424874"/>
</svg>
