<svg width="30" height="30" viewBox="0 0 30 30" fill="none" xmlns="http://www.w3.org/2000/svg">
<mask id="mask0_505_1075" style="mask-type:alpha" maskUnits="userSpaceOnUse" x="0" y="0" width="30" height="30">
<rect width="30" height="30" fill="#D9D9D9"/>
</mask>
<g mask="url(#mask0_505_1075)">
<path d="M4.99969 25.9375C4.73385 25.9375 4.51125 25.8476 4.33187 25.6679C4.15229 25.4883 4.0625 25.2657 4.0625 25V23.8822C4.0625 23.6166 4.1524 23.394 4.33219 23.2144C4.51198 23.0346 4.73469 22.9447 5.00031 22.9447C5.26615 22.9447 5.48875 23.0346 5.66813 23.2144C5.84771 23.394 5.9375 23.6166 5.9375 23.8822V25C5.9375 25.2657 5.8476 25.4883 5.66781 25.6679C5.48802 25.8476 5.26531 25.9375 4.99969 25.9375ZM9.99969 25.9375C9.73385 25.9375 9.51125 25.8476 9.33187 25.6679C9.15229 25.4883 9.0625 25.2657 9.0625 25V18.2572C9.0625 17.9916 9.1524 17.769 9.33219 17.5894C9.51198 17.4096 9.73469 17.3197 10.0003 17.3197C10.2661 17.3197 10.4887 17.4096 10.6681 17.5894C10.8477 17.769 10.9375 17.9916 10.9375 18.2572V25C10.9375 25.2657 10.8476 25.4883 10.6678 25.6679C10.488 25.8476 10.2653 25.9375 9.99969 25.9375ZM14.9997 25.9375C14.7339 25.9375 14.5112 25.8476 14.3319 25.6679C14.1523 25.4883 14.0625 25.2657 14.0625 25V20.7572C14.0625 20.4916 14.1524 20.269 14.3322 20.0894C14.512 19.9096 14.7347 19.8197 15.0003 19.8197C15.2661 19.8197 15.4888 19.9096 15.6681 20.0894C15.8477 20.269 15.9375 20.4916 15.9375 20.7572V25C15.9375 25.2657 15.8476 25.4883 15.6678 25.6679C15.488 25.8476 15.2653 25.9375 14.9997 25.9375ZM19.9997 25.9375C19.7339 25.9375 19.5112 25.8476 19.3319 25.6679C19.1523 25.4883 19.0625 25.2657 19.0625 25V18.8822C19.0625 18.6166 19.1524 18.394 19.3322 18.2144C19.512 18.0346 19.7347 17.9447 20.0003 17.9447C20.2661 17.9447 20.4888 18.0346 20.6681 18.2144C20.8477 18.394 20.9375 18.6166 20.9375 18.8822V25C20.9375 25.2657 20.8476 25.4883 20.6678 25.6679C20.488 25.8476 20.2653 25.9375 19.9997 25.9375ZM24.9997 25.9375C24.7339 25.9375 24.5112 25.8476 24.3319 25.6679C24.1523 25.4883 24.0625 25.2657 24.0625 25V13.8822C24.0625 13.6166 24.1524 13.394 24.3322 13.2144C24.512 13.0346 24.7347 12.9447 25.0003 12.9447C25.2661 12.9447 25.4888 13.0346 25.6681 13.2144C25.8477 13.394 25.9375 13.6166 25.9375 13.8822V25C25.9375 25.2657 25.8476 25.4883 25.6678 25.6679C25.488 25.8476 25.2653 25.9375 24.9997 25.9375ZM17.5 14.6322C17.2067 14.6322 16.9231 14.576 16.6494 14.4635C16.3756 14.351 16.1255 14.1917 15.8991 13.9857L12.7766 10.8629C12.7045 10.7908 12.6123 10.7547 12.5 10.7547C12.3877 10.7547 12.2955 10.7908 12.2234 10.8629L5.65875 17.4279C5.47271 17.6137 5.2499 17.7055 4.99031 17.7032C4.73073 17.7007 4.50802 17.6025 4.32219 17.4088C4.14906 17.2227 4.06635 17.0015 4.07406 16.745C4.08177 16.4884 4.17083 16.2745 4.34125 16.1035L10.8991 9.54567C11.1255 9.32088 11.3756 9.15692 11.6494 9.05379C11.9231 8.95067 12.2067 8.89911 12.5 8.89911C12.7933 8.89911 13.0816 8.95067 13.3647 9.05379C13.6478 9.15692 13.8932 9.32088 14.1009 9.54567L17.2234 12.6685C17.2955 12.7406 17.3877 12.7766 17.5 12.7766C17.6123 12.7766 17.7045 12.7406 17.7766 12.6685L24.3412 6.10348C24.5273 5.91765 24.7501 5.82588 25.0097 5.82817C25.2693 5.83067 25.492 5.92879 25.6778 6.12254C25.8509 6.30858 25.9336 6.52983 25.9259 6.78629C25.9182 7.04296 25.8292 7.25681 25.6588 7.42785L19.1009 13.9857C18.8932 14.1917 18.6478 14.351 18.3647 14.4635C18.0816 14.576 17.7933 14.6322 17.5 14.6322Z" fill="white"/>
</g>
</svg>
