<svg width="22" height="21" viewBox="0 0 22 21" fill="none" xmlns="http://www.w3.org/2000/svg">
<path d="M21.1848 19.3122C19.6777 16.7066 17.3552 14.8383 14.6447 13.9526C15.9854 13.1545 17.0271 11.9383 17.6097 10.4908C18.1923 9.04338 18.2837 7.4447 17.8698 5.94029C17.4559 4.43589 16.5596 3.10893 15.3186 2.16322C14.0775 1.21751 12.5604 0.705322 11.0001 0.705322C9.43975 0.705322 7.92258 1.21751 6.68154 2.16322C5.4405 3.10893 4.54421 4.43589 4.13031 5.94029C3.71641 7.4447 3.80779 9.04338 4.39042 10.4908C4.97304 11.9383 6.0147 13.1545 7.35542 13.9526C4.64495 14.8373 2.3224 16.7056 0.815263 19.3122C0.759993 19.4023 0.723334 19.5026 0.707446 19.6071C0.691559 19.7116 0.696766 19.8183 0.722761 19.9207C0.748755 20.0232 0.79501 20.1194 0.858796 20.2037C0.922583 20.288 1.00261 20.3587 1.09415 20.4116C1.1857 20.4645 1.2869 20.4985 1.3918 20.5116C1.4967 20.5247 1.60317 20.5167 1.70492 20.488C1.80667 20.4594 1.90165 20.4106 1.98425 20.3446C2.06684 20.2786 2.13539 20.1968 2.18584 20.1038C4.05021 16.8818 7.34552 14.958 11.0001 14.958C14.6546 14.958 17.9499 16.8818 19.8143 20.1038C19.8647 20.1968 19.9333 20.2786 20.0159 20.3446C20.0985 20.4106 20.1934 20.4594 20.2952 20.488C20.3969 20.5167 20.5034 20.5247 20.6083 20.5116C20.7132 20.4985 20.8144 20.4645 20.906 20.4116C20.9975 20.3587 21.0775 20.288 21.1413 20.2037C21.2051 20.1194 21.2514 20.0232 21.2773 19.9207C21.3033 19.8183 21.3085 19.7116 21.2927 19.6071C21.2768 19.5026 21.2401 19.4023 21.1848 19.3122ZM5.45839 7.83301C5.45839 6.73698 5.7834 5.66555 6.39233 4.75423C7.00125 3.84291 7.86674 3.13262 8.87935 2.71318C9.89196 2.29375 11.0062 2.184 12.0812 2.39783C13.1562 2.61166 14.1436 3.13945 14.9186 3.91446C15.6936 4.68948 16.2214 5.67691 16.4352 6.75189C16.6491 7.82687 16.5393 8.94111 16.1199 9.95372C15.7005 10.9663 14.9902 11.8318 14.0788 12.4407C13.1675 13.0497 12.0961 13.3747 11.0001 13.3747C9.5308 13.3731 8.12216 12.7888 7.08324 11.7498C6.04432 10.7109 5.45996 9.30227 5.45839 7.83301Z" fill="#424874"/>
</svg>
