<svg width="22" height="21" viewBox="0 0 22 21" fill="none" xmlns="http://www.w3.org/2000/svg">
<path fill-rule="evenodd" clip-rule="evenodd" d="M10.2754 2.44673C5.96107 2.44673 2.46448 5.92559 2.46448 10.2181C2.46448 14.5105 5.96107 17.9894 10.2754 17.9894C14.5889 17.9894 18.0864 14.5105 18.0864 10.2181C18.0864 5.92564 14.5889 2.44673 10.2754 2.44673ZM0.964478 10.2181C0.964478 5.10136 5.13264 0.954346 10.2754 0.954346C15.4172 0.954346 19.5864 5.10131 19.5864 10.2181C19.5864 15.3348 15.4172 19.4818 10.2754 19.4818C5.13264 19.4818 0.964478 15.3347 0.964478 10.2181Z" fill="#424874"/>
<path fill-rule="evenodd" clip-rule="evenodd" d="M18.899 18.1401C18.5338 18.1401 18.2375 18.4355 18.2375 18.7972C18.2375 19.1608 18.5338 19.4553 18.899 19.4553C19.2635 19.4553 19.5595 19.1615 19.5595 18.7972C19.5595 18.4349 19.2635 18.1401 18.899 18.1401ZM16.7375 18.7972C16.7375 17.6106 17.706 16.6477 18.899 16.6477C20.0926 16.6477 21.0595 17.6113 21.0595 18.7972C21.0595 19.985 20.0926 20.9477 18.899 20.9477C17.706 20.9477 16.7375 19.9857 16.7375 18.7972Z" fill="#424874"/>
</svg>
