<svg width="18" height="16" viewBox="0 0 18 16" fill="none" xmlns="http://www.w3.org/2000/svg">
<path d="M1.96152 0.25H16.0385C16.2509 0.25 16.4291 0.321901 16.5728 0.465701C16.7166 0.609518 16.7884 0.787717 16.7884 1.0003C16.7884 1.2129 16.7166 1.39099 16.5728 1.53457C16.4291 1.67816 16.2509 1.74995 16.0385 1.74995H1.96152C1.74903 1.74995 1.57092 1.67805 1.42717 1.53425C1.28342 1.39043 1.21154 1.21223 1.21154 0.999651C1.21154 0.787051 1.28342 0.60896 1.42717 0.465376C1.57092 0.321793 1.74903 0.25 1.96152 0.25ZM2.15384 15.75C1.89776 15.75 1.6831 15.6633 1.50987 15.4901C1.33663 15.3169 1.25002 15.1022 1.25002 14.8461V9.74995H0.94039C0.655773 9.74995 0.421482 9.63873 0.237515 9.4163C0.053532 9.19387 -0.00512657 8.94034 0.0615401 8.65573L1.06154 3.96345C1.10711 3.75535 1.21342 3.58442 1.38047 3.45065C1.54753 3.31688 1.73737 3.25 1.94999 3.25H16.05C16.2626 3.25 16.4524 3.31688 16.6195 3.45065C16.7866 3.58442 16.8929 3.75535 16.9384 3.96345L17.9384 8.65573C18.0051 8.94034 17.9464 9.19387 17.7625 9.4163C17.5785 9.63873 17.3442 9.74995 17.0596 9.74995H16.75V15C16.75 15.2125 16.6781 15.3906 16.5343 15.5343C16.3904 15.6781 16.2122 15.75 15.9997 15.75C15.7871 15.75 15.609 15.6781 15.4654 15.5343C15.3218 15.3906 15.25 15.2125 15.25 15V9.74995H10.75V14.8461C10.75 15.1022 10.6633 15.3169 10.4901 15.4901C10.3169 15.6633 10.1022 15.75 9.84614 15.75H2.15384ZM2.74996 14.25H9.25002V9.74995H2.74996V14.25ZM1.66534 8.25H16.3346L15.5712 4.74995H2.42882L1.66534 8.25Z" fill="#DCD6F7"/>
</svg>
