<svg width="4" height="16" viewBox="0 0 4 16" fill="none" xmlns="http://www.w3.org/2000/svg">
<path d="M1 2C1 2.55228 1.44772 3 2 3C2.55228 3 3 2.55228 3 2C3 1.44772 2.55228 1 2 1C1.44772 1 1 1.44772 1 2Z" fill="black"/>
<path fill-rule="evenodd" clip-rule="evenodd" d="M2.75 2C2.75 1.58579 2.41421 1.25 2 1.25C1.58579 1.25 1.25 1.58579 1.25 2C1.25 2.41421 1.58579 2.75 2 2.75C2.41421 2.75 2.75 2.41421 2.75 2ZM2 0.75C2.69036 0.75 3.25 1.30964 3.25 2C3.25 2.69036 2.69036 3.25 2 3.25C1.30964 3.25 0.75 2.69036 0.75 2C0.75 1.30964 1.30964 0.75 2 0.75Z" fill="black"/>
<path d="M1 8C1 8.55228 1.44772 9 2 9C2.55228 9 3 8.55228 3 8C3 7.44772 2.55228 7 2 7C1.44772 7 1 7.44772 1 8Z" fill="black"/>
<path fill-rule="evenodd" clip-rule="evenodd" d="M2.75 8C2.75 7.58579 2.41421 7.25 2 7.25C1.58579 7.25 1.25 7.58579 1.25 8C1.25 8.41421 1.58579 8.75 2 8.75C2.41421 8.75 2.75 8.41421 2.75 8ZM2 6.75C2.69036 6.75 3.25 7.30964 3.25 8C3.25 8.69036 2.69036 9.25 2 9.25C1.30964 9.25 0.75 8.69036 0.75 8C0.75 7.30964 1.30964 6.75 2 6.75Z" fill="black"/>
<path d="M1 14C1 14.5523 1.44772 15 2 15C2.55228 15 3 14.5523 3 14C3 13.4477 2.55228 13 2 13C1.44772 13 1 13.4477 1 14Z" fill="black"/>
<path fill-rule="evenodd" clip-rule="evenodd" d="M2.75 14C2.75 13.5858 2.41421 13.25 2 13.25C1.58579 13.25 1.25 13.5858 1.25 14C1.25 14.4142 1.58579 14.75 2 14.75C2.41421 14.75 2.75 14.4142 2.75 14ZM2 12.75C2.69036 12.75 3.25 13.3096 3.25 14C3.25 14.6904 2.69036 15.25 2 15.25C1.30964 15.25 0.75 14.6904 0.75 14C0.75 13.3096 1.30964 12.75 2 12.75Z" fill="black"/>
</svg>
