<svg width="30" height="30" viewBox="0 0 30 30" fill="none" xmlns="http://www.w3.org/2000/svg">
<path d="M29.7656 15.9375C29.7656 16.124 29.6915 16.3028 29.5597 16.4347C29.4278 16.5665 29.249 16.6406 29.0625 16.6406H26.9531V18.75C26.9531 18.9365 26.879 19.1153 26.7472 19.2472C26.6153 19.379 26.4365 19.4531 26.25 19.4531C26.0635 19.4531 25.8847 19.379 25.7528 19.2472C25.6209 19.1153 25.5469 18.9365 25.5469 18.75V16.6406H23.4375C23.251 16.6406 23.0722 16.5665 22.9403 16.4347C22.8084 16.3028 22.7344 16.124 22.7344 15.9375C22.7344 15.751 22.8084 15.5722 22.9403 15.4403C23.0722 15.3084 23.251 15.2344 23.4375 15.2344H25.5469V13.125C25.5469 12.9385 25.6209 12.7597 25.7528 12.6278C25.8847 12.4959 26.0635 12.4219 26.25 12.4219C26.4365 12.4219 26.6153 12.4959 26.7472 12.6278C26.879 12.7597 26.9531 12.9385 26.9531 13.125V15.2344H29.0625C29.249 15.2344 29.4278 15.3084 29.5597 15.4403C29.6915 15.5722 29.7656 15.751 29.7656 15.9375ZM23.0379 22.9852C23.1006 23.0553 23.1486 23.1374 23.179 23.2264C23.2094 23.3155 23.2216 23.4098 23.2149 23.5036C23.2082 23.5975 23.1827 23.6891 23.14 23.7729C23.0973 23.8568 23.0381 23.9312 22.9661 23.9917C22.8941 24.0523 22.8106 24.0978 22.7207 24.1255C22.6308 24.1533 22.5362 24.1626 22.4425 24.1531C22.3489 24.1436 22.2582 24.1154 22.1756 24.0702C22.0931 24.025 22.0205 23.9636 21.9621 23.8898C19.5586 21.0293 16.2527 19.4531 12.6562 19.4531C9.05976 19.4531 5.75507 21.0293 3.35039 23.8898C3.22857 24.0262 3.05844 24.1097 2.87607 24.1227C2.6937 24.1357 2.51344 24.0772 2.3735 23.9595C2.23357 23.8418 2.14498 23.6743 2.12652 23.4924C2.10806 23.3105 2.16117 23.1285 2.27461 22.9852C4.11796 20.7902 6.44531 19.275 9.02343 18.5449C7.50007 17.7344 6.29148 16.4378 5.58994 14.8613C4.8884 13.2848 4.73419 11.519 5.15185 9.84472C5.56952 8.17048 6.53506 6.68399 7.89488 5.62172C9.2547 4.55945 10.9307 3.98242 12.6562 3.98242C14.3818 3.98242 16.0578 4.55945 17.4176 5.62172C18.7774 6.68399 19.743 8.17048 20.1606 9.84472C20.5783 11.519 20.4241 13.2848 19.7225 14.8613C19.021 16.4378 17.8124 17.7344 16.2891 18.5449C18.8672 19.275 21.1945 20.7902 23.0379 22.9852ZM12.6562 18.0469C13.9078 18.0469 15.1313 17.6757 16.172 16.9804C17.2126 16.285 18.0237 15.2967 18.5027 14.1404C18.9816 12.9841 19.1069 11.7117 18.8628 10.4842C18.6186 9.25665 18.0159 8.12909 17.1309 7.24409C16.2459 6.35908 15.1183 5.75639 13.8908 5.51221C12.6633 5.26804 11.3909 5.39336 10.2346 5.87232C9.07826 6.35128 8.08995 7.16237 7.3946 8.20303C6.69926 9.24368 6.32812 10.4672 6.32812 11.7187C6.32998 13.3965 6.99729 15.005 8.18364 16.1913C9.36999 17.3777 10.9785 18.045 12.6562 18.0469Z" fill="#424874"/>
</svg>
